<svg xmlns="http://www.w3.org/2000/svg" version="1.1" xmlns:xlink="http://www.w3.org/1999/xlink" width="100%" height="100%" id="waves" viewBox="0 0 800 300" preserveAspectRatio="xMinYMin slice"><defs></defs><rect width="800" height="300" fill="#6b9899"></rect><g><path d="
    M 0,0
    C 0 150, 0 150, 0 300" stroke-opacity="0.7999999999999999" stroke-width="0.8999999999999999" stroke="#98c9d5" fill="none"></path><path d="
    M 28,0
    C 41.24103860294118 158.8235294117647, 41.24103860294118 158.8235294117647, 28 300" stroke-opacity="0.7999999999999999" stroke-width="0.8999999999999999" stroke="#8dbecf" fill="none"></path><path d="
    M 56,0
    C 82.48207720588236 167.64705882352942, 82.48207720588236 167.64705882352942, 56 300" stroke-opacity="0.7999999999999999" stroke-width="0.8999999999999999" stroke="#82b4c9" fill="none"></path><path d="
    M 84,0
    C 123.72311580882354 176.47058823529414, 123.72311580882354 176.47058823529414, 84 300" stroke-opacity="0.7999999999999999" stroke-width="0.8999999999999999" stroke="#78a9c3" fill="none"></path><path d="
    M 112,0
    C 164.96415441176472 185.29411764705884, 164.96415441176472 185.29411764705884, 112 300" stroke-opacity="0.7999999999999999" stroke-width="0.8999999999999999" stroke="#6d9fbd" fill="none"></path><path d="
    M 140,0
    C 206.2051930147059 194.11764705882354, 206.2051930147059 194.11764705882354, 140 300" stroke-opacity="0.7999999999999999" stroke-width="0.8999999999999999" stroke="#6294b7" fill="none"></path><path d="
    M 168,0
    C 247.44623161764707 202.94117647058826, 247.44623161764707 202.94117647058826, 168 300" stroke-opacity="0.7999999999999999" stroke-width="0.8999999999999999" stroke="#578ab2" fill="none"></path><path d="
    M 196,0
    C 288.6872702205883 211.76470588235298, 288.6872702205883 211.76470588235298, 196 300" stroke-opacity="0.7999999999999999" stroke-width="0.8999999999999999" stroke="#4c7fac" fill="none"></path><path d="
    M 224,0
    C 329.92830882352945 220.58823529411768, 329.92830882352945 220.58823529411768, 224 300" stroke-opacity="0.7999999999999999" stroke-width="0.8999999999999999" stroke="#4274a6" fill="none"></path><path d="
    M 252,0
    C 371.1693474264706 229.41176470588238, 371.1693474264706 229.41176470588238, 252 300" stroke-opacity="0.7999999999999999" stroke-width="0.8999999999999999" stroke="#376aa0" fill="none"></path><path d="
    M 280,0
    C 412.4103860294118 238.2352941176471, 412.4103860294118 238.2352941176471, 280 300" stroke-opacity="0.7999999999999999" stroke-width="0.8999999999999999" stroke="#2c5f9a" fill="none"></path><path d="
    M 308,0
    C 453.651424632353 247.05882352941182, 453.651424632353 247.05882352941182, 308 300" stroke-opacity="0.7999999999999999" stroke-width="0.8999999999999999" stroke="#215594" fill="none"></path><path d="
    M 336,0
    C 494.89246323529414 255.88235294117652, 494.89246323529414 255.88235294117652, 336 300" stroke-opacity="0.7999999999999999" stroke-width="0.8999999999999999" stroke="#164a8e" fill="none"></path></g></svg>