<svg xmlns="http://www.w3.org/2000/svg" version="1.1" xmlns:xlink="http://www.w3.org/1999/xlink" width="100%" height="100%" id="waves" viewBox="0 0 800 300" preserveAspectRatio="xMinYMin slice"><defs></defs><rect width="800" height="300" fill="#986b99"></rect><g><path d="
    M 0,0
    C 0 150, 0 150, 0 300" stroke-opacity="0.7" stroke-width="0.8999999999999999" stroke="#9f9f9f" fill="none"></path><path d="
    M 28,0
    C 0.06456801470588047 150, 0.06456801470588047 150, 28 300" stroke-opacity="0.7" stroke-width="0.8999999999999999" stroke="#a6a6a6" fill="none"></path><path d="
    M 56,0
    C 0.12913602941176094 150, 0.12913602941176094 150, 56 300" stroke-opacity="0.7" stroke-width="0.8999999999999999" stroke="#aeaeae" fill="none"></path><path d="
    M 84,0
    C 0.19370404411763786 150, 0.19370404411763786 150, 84 300" stroke-opacity="0.7" stroke-width="0.8999999999999999" stroke="#b5b5b5" fill="none"></path><path d="
    M 112,0
    C 0.2582720588235219 150, 0.2582720588235219 150, 112 300" stroke-opacity="0.7" stroke-width="0.8999999999999999" stroke="#bdbdbd" fill="none"></path><path d="
    M 140,0
    C 0.3228400735293917 150, 0.3228400735293917 150, 140 300" stroke-opacity="0.7" stroke-width="0.8999999999999999" stroke="#c4c4c4" fill="none"></path><path d="
    M 168,0
    C 0.3874080882352757 150, 0.3874080882352757 150, 168 300" stroke-opacity="0.7" stroke-width="0.8999999999999999" stroke="#cccccc" fill="none"></path><path d="
    M 196,0
    C 0.45197610294115975 150, 0.45197610294115975 150, 196 300" stroke-opacity="0.7" stroke-width="0.8999999999999999" stroke="#d3d3d3" fill="none"></path><path d="
    M 224,0
    C 0.5165441176470438 150, 0.5165441176470438 150, 224 300" stroke-opacity="0.7" stroke-width="0.8999999999999999" stroke="#dbdbdb" fill="none"></path><path d="
    M 252,0
    C 0.5811121323529278 150, 0.5811121323529278 150, 252 300" stroke-opacity="0.7" stroke-width="0.8999999999999999" stroke="#e2e2e2" fill="none"></path><path d="
    M 280,0
    C 0.6456801470587834 150, 0.6456801470587834 150, 280 300" stroke-opacity="0.7" stroke-width="0.8999999999999999" stroke="#eaeaea" fill="none"></path><path d="
    M 308,0
    C 0.7102481617646959 150, 0.7102481617646959 150, 308 300" stroke-opacity="0.7" stroke-width="0.8999999999999999" stroke="#f1f1f1" fill="none"></path><path d="
    M 336,0
    C 0.7748161764705515 150, 0.7748161764705515 150, 336 300" stroke-opacity="0.7" stroke-width="0.8999999999999999" stroke="#f9f9f9" fill="none"></path></g></svg>