<svg xmlns="http://www.w3.org/2000/svg" version="1.1" xmlns:xlink="http://www.w3.org/1999/xlink" width="100%" height="100%" id="waves" viewBox="0 0 800 300" preserveAspectRatio="xMinYMin slice"><defs></defs><rect width="800" height="300" fill="#dfdfdf"></rect><g><path d="
    M 0,0
    C 0 150, 0 150, 0 300" stroke-opacity="0.7" stroke-width="0.5999999999999999" stroke="#4c05b5" fill="none"></path><path d="
    M 28,0
    C -5.082490808823529 156.61764705882354, -5.082490808823529 156.61764705882354, 28 300" stroke-opacity="0.7" stroke-width="0.5999999999999999" stroke="#4f05b6" fill="none"></path><path d="
    M 56,0
    C -10.164981617647058 163.23529411764707, -10.164981617647058 163.23529411764707, 56 300" stroke-opacity="0.7" stroke-width="0.5999999999999999" stroke="#5205b7" fill="none"></path><path d="
    M 84,0
    C -15.24747242647058 169.85294117647058, -15.24747242647058 169.85294117647058, 84 300" stroke-opacity="0.7" stroke-width="0.5999999999999999" stroke="#5505b8" fill="none"></path><path d="
    M 112,0
    C -20.329963235294116 176.47058823529412, -20.329963235294116 176.47058823529412, 112 300" stroke-opacity="0.7" stroke-width="0.5999999999999999" stroke="#5805b9" fill="none"></path><path d="
    M 140,0
    C -25.412454044117652 183.08823529411765, -25.412454044117652 183.08823529411765, 140 300" stroke-opacity="0.7" stroke-width="0.5999999999999999" stroke="#5b05ba" fill="none"></path><path d="
    M 168,0
    C -30.49494485294116 189.70588235294116, -30.49494485294116 189.70588235294116, 168 300" stroke-opacity="0.7" stroke-width="0.5999999999999999" stroke="#5e04bc" fill="none"></path><path d="
    M 196,0
    C -35.577435661764696 196.3235294117647, -35.577435661764696 196.3235294117647, 196 300" stroke-opacity="0.7" stroke-width="0.5999999999999999" stroke="#6104bd" fill="none"></path><path d="
    M 224,0
    C -40.65992647058823 202.94117647058823, -40.65992647058823 202.94117647058823, 224 300" stroke-opacity="0.7" stroke-width="0.5999999999999999" stroke="#6504be" fill="none"></path><path d="
    M 252,0
    C -45.74241727941177 209.55882352941177, -45.74241727941177 209.55882352941177, 252 300" stroke-opacity="0.7" stroke-width="0.5999999999999999" stroke="#6804bf" fill="none"></path><path d="
    M 280,0
    C -50.824908088235304 216.1764705882353, -50.824908088235304 216.1764705882353, 280 300" stroke-opacity="0.7" stroke-width="0.5999999999999999" stroke="#6b04c0" fill="none"></path><path d="
    M 308,0
    C -55.90739889705884 222.7941176470588, -55.90739889705884 222.7941176470588, 308 300" stroke-opacity="0.7" stroke-width="0.5999999999999999" stroke="#6e04c1" fill="none"></path><path d="
    M 336,0
    C -60.98988970588232 229.41176470588235, -60.98988970588232 229.41176470588235, 336 300" stroke-opacity="0.7" stroke-width="0.5999999999999999" stroke="#7104c2" fill="none"></path><path d="
    M 364,0
    C -66.07238051470586 236.02941176470588, -66.07238051470586 236.02941176470588, 364 300" stroke-opacity="0.7" stroke-width="0.5999999999999999" stroke="#7404c3" fill="none"></path><path d="
    M 392,0
    C -71.15487132352939 242.6470588235294, -71.15487132352939 242.6470588235294, 392 300" stroke-opacity="0.7" stroke-width="0.5999999999999999" stroke="#7704c4" fill="none"></path><path d="
    M 420,0
    C -76.23736213235293 249.26470588235293, -76.23736213235293 249.26470588235293, 420 300" stroke-opacity="0.7" stroke-width="0.5999999999999999" stroke="#7a04c5" fill="none"></path><path d="
    M 448,0
    C -81.31985294117646 255.88235294117646, -81.31985294117646 255.88235294117646, 448 300" stroke-opacity="0.7" stroke-width="0.5999999999999999" stroke="#7d04c6" fill="none"></path><path d="
    M 476,0
    C -86.40234375 262.5, -86.40234375 262.5, 476 300" stroke-opacity="0.7" stroke-width="0.5999999999999999" stroke="#8004c7" fill="none"></path><path d="
    M 504,0
    C -91.48483455882354 269.11764705882354, -91.48483455882354 269.11764705882354, 504 300" stroke-opacity="0.7" stroke-width="0.5999999999999999" stroke="#8303c9" fill="none"></path><path d="
    M 532,0
    C -96.56732536764707 275.7352941176471, -96.56732536764707 275.7352941176471, 532 300" stroke-opacity="0.7" stroke-width="0.5999999999999999" stroke="#8603ca" fill="none"></path><path d="
    M 560,0
    C -101.64981617647061 282.3529411764706, -101.64981617647061 282.3529411764706, 560 300" stroke-opacity="0.7" stroke-width="0.5999999999999999" stroke="#8903cb" fill="none"></path><path d="
    M 588,0
    C -106.73230698529414 288.97058823529414, -106.73230698529414 288.97058823529414, 588 300" stroke-opacity="0.7" stroke-width="0.5999999999999999" stroke="#8c03cc" fill="none"></path><path d="
    M 616,0
    C -111.81479779411768 295.5882352941176, -111.81479779411768 295.5882352941176, 616 300" stroke-opacity="0.7" stroke-width="0.5999999999999999" stroke="#8f03cd" fill="none"></path><path d="
    M 644,0
    C -116.89728860294122 302.20588235294116, -116.89728860294122 302.20588235294116, 644 300" stroke-opacity="0.7" stroke-width="0.5999999999999999" stroke="#9203ce" fill="none"></path><path d="
    M 672,0
    C -121.97977941176464 308.8235294117647, -121.97977941176464 308.8235294117647, 672 300" stroke-opacity="0.7" stroke-width="0.5999999999999999" stroke="#9603cf" fill="none"></path><path d="
    M 700,0
    C -127.06227022058818 315.44117647058823, -127.06227022058818 315.44117647058823, 700 300" stroke-opacity="0.7" stroke-width="0.5999999999999999" stroke="#9903d0" fill="none"></path><path d="
    M 728,0
    C -132.1447610294117 322.05882352941177, -132.1447610294117 322.05882352941177, 728 300" stroke-opacity="0.7" stroke-width="0.5999999999999999" stroke="#9c03d1" fill="none"></path><path d="
    M 756,0
    C -137.22725183823525 328.67647058823525, -137.22725183823525 328.67647058823525, 756 300" stroke-opacity="0.7" stroke-width="0.5999999999999999" stroke="#9f03d2" fill="none"></path><path d="
    M 784,0
    C -142.30974264705878 335.2941176470588, -142.30974264705878 335.2941176470588, 784 300" stroke-opacity="0.7" stroke-width="0.5999999999999999" stroke="#a203d3" fill="none"></path><path d="
    M 812,0
    C -147.39223345588232 341.9117647058823, -147.39223345588232 341.9117647058823, 812 300" stroke-opacity="0.7" stroke-width="0.5999999999999999" stroke="#a502d4" fill="none"></path><path d="
    M 840,0
    C -152.47472426470586 348.52941176470586, -152.47472426470586 348.52941176470586, 840 300" stroke-opacity="0.7" stroke-width="0.5999999999999999" stroke="#a802d6" fill="none"></path><path d="
    M 868,0
    C -157.5572150735295 355.1470588235294, -157.5572150735295 355.1470588235294, 868 300" stroke-opacity="0.7" stroke-width="0.5999999999999999" stroke="#ab02d7" fill="none"></path><path d="
    M 896,0
    C -162.63970588235293 361.7647058823529, -162.63970588235293 361.7647058823529, 896 300" stroke-opacity="0.7" stroke-width="0.5999999999999999" stroke="#ae02d8" fill="none"></path><path d="
    M 924,0
    C -167.72219669117635 368.38235294117646, -167.72219669117635 368.38235294117646, 924 300" stroke-opacity="0.7" stroke-width="0.5999999999999999" stroke="#b102d9" fill="none"></path><path d="
    M 952,0
    C -172.8046875 375, -172.8046875 375, 952 300" stroke-opacity="0.7" stroke-width="0.5999999999999999" stroke="#b402da" fill="none"></path><path d="
    M 980,0
    C -177.88717830882342 381.61764705882354, -177.88717830882342 381.61764705882354, 980 300" stroke-opacity="0.7" stroke-width="0.5999999999999999" stroke="#b702db" fill="none"></path><path d="
    M 1008,0
    C -182.96966911764707 388.2352941176471, -182.96966911764707 388.2352941176471, 1008 300" stroke-opacity="0.7" stroke-width="0.5999999999999999" stroke="#ba02dc" fill="none"></path><path d="
    M 1036,0
    C -188.0521599264705 394.8529411764706, -188.0521599264705 394.8529411764706, 1036 300" stroke-opacity="0.7" stroke-width="0.5999999999999999" stroke="#bd02dd" fill="none"></path><path d="
    M 1064,0
    C -193.13465073529414 401.4705882352941, -193.13465073529414 401.4705882352941, 1064 300" stroke-opacity="0.7" stroke-width="0.5999999999999999" stroke="#c002de" fill="none"></path><path d="
    M 1092,0
    C -198.21714154411757 408.0882352941176, -198.21714154411757 408.0882352941176, 1092 300" stroke-opacity="0.7" stroke-width="0.5999999999999999" stroke="#c302df" fill="none"></path><path d="
    M 1120,0
    C -203.29963235294122 414.70588235294116, -203.29963235294122 414.70588235294116, 1120 300" stroke-opacity="0.7" stroke-width="0.5999999999999999" stroke="#c702e0" fill="none"></path><path d="
    M 1148,0
    C -208.38212316176464 421.3235294117647, -208.38212316176464 421.3235294117647, 1148 300" stroke-opacity="0.7" stroke-width="0.5999999999999999" stroke="#ca01e1" fill="none"></path><path d="
    M 1176,0
    C -213.4646139705883 427.94117647058823, -213.4646139705883 427.94117647058823, 1176 300" stroke-opacity="0.7" stroke-width="0.5999999999999999" stroke="#cd01e3" fill="none"></path><path d="
    M 1204,0
    C -218.5471047794117 434.55882352941177, -218.5471047794117 434.55882352941177, 1204 300" stroke-opacity="0.7" stroke-width="0.5999999999999999" stroke="#d001e4" fill="none"></path><path d="
    M 1232,0
    C -223.62959558823536 441.17647058823525, -223.62959558823536 441.17647058823525, 1232 300" stroke-opacity="0.7" stroke-width="0.5999999999999999" stroke="#d301e5" fill="none"></path><path d="
    M 1260,0
    C -228.71208639705878 447.7941176470588, -228.71208639705878 447.7941176470588, 1260 300" stroke-opacity="0.7" stroke-width="0.5999999999999999" stroke="#d601e6" fill="none"></path><path d="
    M 1288,0
    C -233.79457720588243 454.4117647058823, -233.79457720588243 454.4117647058823, 1288 300" stroke-opacity="0.7" stroke-width="0.5999999999999999" stroke="#d901e7" fill="none"></path><path d="
    M 1316,0
    C -238.87706801470586 461.02941176470586, -238.87706801470586 461.02941176470586, 1316 300" stroke-opacity="0.7" stroke-width="0.5999999999999999" stroke="#dc01e8" fill="none"></path><path d="
    M 1344,0
    C -243.95955882352928 467.6470588235294, -243.95955882352928 467.6470588235294, 1344 300" stroke-opacity="0.7" stroke-width="0.5999999999999999" stroke="#df01e9" fill="none"></path><path d="
    M 1372,0
    C -249.04204963235293 474.2647058823529, -249.04204963235293 474.2647058823529, 1372 300" stroke-opacity="0.7" stroke-width="0.5999999999999999" stroke="#e201ea" fill="none"></path><path d="
    M 1400,0
    C -254.12454044117635 480.88235294117646, -254.12454044117635 480.88235294117646, 1400 300" stroke-opacity="0.7" stroke-width="0.5999999999999999" stroke="#e501eb" fill="none"></path><path d="
    M 1428,0
    C -259.20703125 487.5, -259.20703125 487.5, 1428 300" stroke-opacity="0.7" stroke-width="0.5999999999999999" stroke="#e801ec" fill="none"></path><path d="
    M 1456,0
    C -264.2895220588234 494.11764705882354, -264.2895220588234 494.11764705882354, 1456 300" stroke-opacity="0.7" stroke-width="0.5999999999999999" stroke="#eb00ed" fill="none"></path><path d="
    M 1484,0
    C -269.3720128676471 500.735294117647, -269.3720128676471 500.735294117647, 1484 300" stroke-opacity="0.7" stroke-width="0.5999999999999999" stroke="#ee00ef" fill="none"></path><path d="
    M 1512,0
    C -274.4545036764705 507.35294117647055, -274.4545036764705 507.35294117647055, 1512 300" stroke-opacity="0.7" stroke-width="0.5999999999999999" stroke="#f100f0" fill="none"></path><path d="
    M 1540,0
    C -279.53699448529414 513.9705882352941, -279.53699448529414 513.9705882352941, 1540 300" stroke-opacity="0.7" stroke-width="0.5999999999999999" stroke="#f400f1" fill="none"></path><path d="
    M 1568,0
    C -284.61948529411757 520.5882352941176, -284.61948529411757 520.5882352941176, 1568 300" stroke-opacity="0.7" stroke-width="0.5999999999999999" stroke="#f800f2" fill="none"></path><path d="
    M 1596,0
    C -289.7019761029412 527.2058823529412, -289.7019761029412 527.2058823529412, 1596 300" stroke-opacity="0.7" stroke-width="0.5999999999999999" stroke="#fb00f3" fill="none"></path></g></svg>