<svg xmlns="http://www.w3.org/2000/svg" version="1.1" xmlns:xlink="http://www.w3.org/1999/xlink" width="100%" height="100%" id="waves" viewBox="0 0 800 300" preserveAspectRatio="xMinYMin slice"><defs><filter id="noise">
        <feTurbulence type="fractalNoise" baseFrequency="19.5" numOctaves="10" result="turbulence"></feTurbulence>
        <feComposite operator="in" in="turbulence" in2="SourceAlpha" result="composite"></feComposite>
        <feColorMatrix in="composite" type="luminanceToAlpha"></feColorMatrix>
        <feBlend in="SourceGraphic" in2="composite" mode="color-burn"></feBlend>
  </filter></defs><rect width="800" height="300" fill="#7b996c" filter="url('#noise')"></rect><g><path d="
    M 0,0
    C 0 150, 0 150, 0 300" stroke-opacity="0.7" stroke-width="1.5" stroke="#cccccc" fill="none"></path><path d="
    M 15,0
    C 10 148, 10 148, 15 300" stroke-opacity="0.7" stroke-width="1.5" stroke="#cccccc" fill="none"></path><path d="
    M 30,0
    C 20 146, 20 146, 30 300" stroke-opacity="0.7" stroke-width="1.5" stroke="#cbcbcb" fill="none"></path><path d="
    M 45,0
    C 30 144, 30 144, 45 300" stroke-opacity="0.7" stroke-width="1.5" stroke="#cbcbcb" fill="none"></path><path d="
    M 60,0
    C 40 142, 40 142, 60 300" stroke-opacity="0.7" stroke-width="1.5" stroke="#cbcbcb" fill="none"></path><path d="
    M 75,0
    C 50 140, 50 140, 75 300" stroke-opacity="0.7" stroke-width="1.5" stroke="#cacaca" fill="none"></path><path d="
    M 90,0
    C 60 138, 60 138, 90 300" stroke-opacity="0.7" stroke-width="1.5" stroke="#cacaca" fill="none"></path><path d="
    M 105,0
    C 70 136, 70 136, 105 300" stroke-opacity="0.7" stroke-width="1.5" stroke="#cacaca" fill="none"></path><path d="
    M 120,0
    C 80 134, 80 134, 120 300" stroke-opacity="0.7" stroke-width="1.5" stroke="#c9c9c9" fill="none"></path><path d="
    M 135,0
    C 90 132, 90 132, 135 300" stroke-opacity="0.7" stroke-width="1.5" stroke="#c9c9c9" fill="none"></path><path d="
    M 150,0
    C 100 130, 100 130, 150 300" stroke-opacity="0.7" stroke-width="1.5" stroke="#c9c9c9" fill="none"></path><path d="
    M 165,0
    C 110 128, 110 128, 165 300" stroke-opacity="0.7" stroke-width="1.5" stroke="#c8c8c8" fill="none"></path><path d="
    M 180,0
    C 120 126, 120 126, 180 300" stroke-opacity="0.7" stroke-width="1.5" stroke="#c8c8c8" fill="none"></path><path d="
    M 195,0
    C 130 124, 130 124, 195 300" stroke-opacity="0.7" stroke-width="1.5" stroke="#c8c8c8" fill="none"></path><path d="
    M 210,0
    C 140 122, 140 122, 210 300" stroke-opacity="0.7" stroke-width="1.5" stroke="#c8c8c8" fill="none"></path><path d="
    M 225,0
    C 150 120, 150 120, 225 300" stroke-opacity="0.7" stroke-width="1.5" stroke="#c7c7c7" fill="none"></path><path d="
    M 240,0
    C 160 118, 160 118, 240 300" stroke-opacity="0.7" stroke-width="1.5" stroke="#c7c7c7" fill="none"></path><path d="
    M 255,0
    C 170 116, 170 116, 255 300" stroke-opacity="0.7" stroke-width="1.5" stroke="#c7c7c7" fill="none"></path><path d="
    M 270,0
    C 180 114, 180 114, 270 300" stroke-opacity="0.7" stroke-width="1.5" stroke="#c6c6c6" fill="none"></path><path d="
    M 285,0
    C 190 112, 190 112, 285 300" stroke-opacity="0.7" stroke-width="1.5" stroke="#c6c6c6" fill="none"></path><path d="
    M 300,0
    C 200 110, 200 110, 300 300" stroke-opacity="0.7" stroke-width="1.5" stroke="#c6c6c6" fill="none"></path><path d="
    M 315,0
    C 210 108, 210 108, 315 300" stroke-opacity="0.7" stroke-width="1.5" stroke="#c5c5c5" fill="none"></path><path d="
    M 330,0
    C 220 106, 220 106, 330 300" stroke-opacity="0.7" stroke-width="1.5" stroke="#c5c5c5" fill="none"></path><path d="
    M 345,0
    C 230 104, 230 104, 345 300" stroke-opacity="0.7" stroke-width="1.5" stroke="#c5c5c5" fill="none"></path><path d="
    M 360,0
    C 240 102, 240 102, 360 300" stroke-opacity="0.7" stroke-width="1.5" stroke="#c4c4c4" fill="none"></path><path d="
    M 375,0
    C 250 100, 250 100, 375 300" stroke-opacity="0.7" stroke-width="1.5" stroke="#c4c4c4" fill="none"></path><path d="
    M 390,0
    C 260 98, 260 98, 390 300" stroke-opacity="0.7" stroke-width="1.5" stroke="#c4c4c4" fill="none"></path><path d="
    M 405,0
    C 270 96, 270 96, 405 300" stroke-opacity="0.7" stroke-width="1.5" stroke="#c3c3c3" fill="none"></path><path d="
    M 420,0
    C 280 94, 280 94, 420 300" stroke-opacity="0.7" stroke-width="1.5" stroke="#c3c3c3" fill="none"></path><path d="
    M 435,0
    C 290 92, 290 92, 435 300" stroke-opacity="0.7" stroke-width="1.5" stroke="#c3c3c3" fill="none"></path><path d="
    M 450,0
    C 300 90, 300 90, 450 300" stroke-opacity="0.7" stroke-width="1.5" stroke="#c2c2c2" fill="none"></path><path d="
    M 465,0
    C 310 88, 310 88, 465 300" stroke-opacity="0.7" stroke-width="1.5" stroke="#c2c2c2" fill="none"></path><path d="
    M 480,0
    C 320 86, 320 86, 480 300" stroke-opacity="0.7" stroke-width="1.5" stroke="#c2c2c2" fill="none"></path><path d="
    M 495,0
    C 330 84, 330 84, 495 300" stroke-opacity="0.7" stroke-width="1.5" stroke="#c1c1c1" fill="none"></path><path d="
    M 510,0
    C 340 82, 340 82, 510 300" stroke-opacity="0.7" stroke-width="1.5" stroke="#c1c1c1" fill="none"></path><path d="
    M 525,0
    C 350 80, 350 80, 525 300" stroke-opacity="0.7" stroke-width="1.5" stroke="#c1c1c1" fill="none"></path><path d="
    M 540,0
    C 360 78, 360 78, 540 300" stroke-opacity="0.7" stroke-width="1.5" stroke="#c1c1c1" fill="none"></path><path d="
    M 555,0
    C 370 76, 370 76, 555 300" stroke-opacity="0.7" stroke-width="1.5" stroke="#c0c0c0" fill="none"></path><path d="
    M 570,0
    C 380 74, 380 74, 570 300" stroke-opacity="0.7" stroke-width="1.5" stroke="#c0c0c0" fill="none"></path><path d="
    M 585,0
    C 390 72, 390 72, 585 300" stroke-opacity="0.7" stroke-width="1.5" stroke="#c0c0c0" fill="none"></path><path d="
    M 600,0
    C 400 70, 400 70, 600 300" stroke-opacity="0.7" stroke-width="1.5" stroke="#bfbfbf" fill="none"></path><path d="
    M 615,0
    C 410 68, 410 68, 615 300" stroke-opacity="0.7" stroke-width="1.5" stroke="#bfbfbf" fill="none"></path><path d="
    M 630,0
    C 420 66, 420 66, 630 300" stroke-opacity="0.7" stroke-width="1.5" stroke="#bfbfbf" fill="none"></path><path d="
    M 645,0
    C 430 64, 430 64, 645 300" stroke-opacity="0.7" stroke-width="1.5" stroke="#bebebe" fill="none"></path><path d="
    M 660,0
    C 440 62, 440 62, 660 300" stroke-opacity="0.7" stroke-width="1.5" stroke="#bebebe" fill="none"></path><path d="
    M 675,0
    C 450 60, 450 60, 675 300" stroke-opacity="0.7" stroke-width="1.5" stroke="#bebebe" fill="none"></path><path d="
    M 690,0
    C 460 58, 460 58, 690 300" stroke-opacity="0.7" stroke-width="1.5" stroke="#bdbdbd" fill="none"></path><path d="
    M 705,0
    C 470 56, 470 56, 705 300" stroke-opacity="0.7" stroke-width="1.5" stroke="#bdbdbd" fill="none"></path><path d="
    M 720,0
    C 480 54, 480 54, 720 300" stroke-opacity="0.7" stroke-width="1.5" stroke="#bdbdbd" fill="none"></path><path d="
    M 735,0
    C 490 52, 490 52, 735 300" stroke-opacity="0.7" stroke-width="1.5" stroke="#bcbcbc" fill="none"></path><path d="
    M 750,0
    C 500 50, 500 50, 750 300" stroke-opacity="0.7" stroke-width="1.5" stroke="#bcbcbc" fill="none"></path><path d="
    M 765,0
    C 510 48, 510 48, 765 300" stroke-opacity="0.7" stroke-width="1.5" stroke="#bcbcbc" fill="none"></path><path d="
    M 780,0
    C 520 46, 520 46, 780 300" stroke-opacity="0.7" stroke-width="1.5" stroke="#bbbbbb" fill="none"></path><path d="
    M 795,0
    C 530 44, 530 44, 795 300" stroke-opacity="0.7" stroke-width="1.5" stroke="#bbbbbb" fill="none"></path></g></svg>